<?xml version="1.0" encoding="utf-8"?>
<svg x="110.824pt" y="110.824pt" width="802.351pt" height="802.351pt" viewBox="110.824 110.824 802.351 802.351" xmlns="http://www.w3.org/2000/svg" xmlns:xlink="http://www.w3.org/1999/xlink">
  <radialGradient cx="529.824" cy="668.259" r="286.92" fx="645.646" fy="695.379" gradientUnits="userSpaceOnUse" gradientTransform="matrix(0.234602,0.972092,-0.972092,0.234602,1055.14,-3.55258)" id="3">
    <stop style="stop-color:#4e00d4;stop-opacity:1;"/>
    <stop offset="1" style="stop-color:#805fff;stop-opacity:1;"/>
  </radialGradient>
  <defs>
    <title>Shape 4 Copy Copy Copy Copy Copy Copy</title>
    <g id="1">
      <defs>
        <path id="2" d="M119.325,505.25 C120.24,431.476,296.789,373.853,513.657,376.545 C730.524,379.238,905.588,441.226,904.672,515"/>
      </defs>
      <use xlink:href="#2" style="fill:none;opacity:1;stroke:url(#3);stroke-linecap:butt;stroke-linejoin:miter;stroke-miterlimit:10;stroke-opacity:1;stroke-width:17;"/>
    </g>
  </defs>
  <use xlink:href="#1"/>
  <radialGradient cx="665.259" cy="494.177" r="286.92" fx="781.082" fy="521.296" gradientUnits="userSpaceOnUse" gradientTransform="matrix(0.972092,-0.234602,0.234602,0.972092,-97.3684,169.863)" id="6">
    <stop style="stop-color:#4e00d4;stop-opacity:1;"/>
    <stop offset="1" style="stop-color:#805fff;stop-opacity:1;"/>
  </radialGradient>
  <defs>
    <title>Shape 4 Copy Copy Copy</title>
    <g id="4">
      <defs>
        <path id="5" d="M502.25,904.676 C428.476,903.76,370.853,727.211,373.545,510.344 C376.238,293.476,438.226,118.412,512,119.328"/>
      </defs>
      <use xlink:href="#5" style="fill:none;opacity:1;stroke:url(#6);stroke-linecap:butt;stroke-linejoin:miter;stroke-miterlimit:10;stroke-opacity:1;stroke-width:17;"/>
    </g>
  </defs>
  <use xlink:href="#4"/>
  <radialGradient cx="412.787" cy="645.422" r="286.922" fx="528.61" fy="672.542" gradientUnits="userSpaceOnUse" gradientTransform="matrix(-0.521481,0.853263,-0.853263,-0.521481,1178.76,629.782)" id="9">
    <stop style="stop-color:#4e00d4;stop-opacity:1;"/>
    <stop offset="1" style="stop-color:#805fff;stop-opacity:1;"/>
  </radialGradient>
  <defs>
    <title>Shape 4</title>
    <g id="7">
      <defs>
        <path id="8" d="M237.785,239.891 C290.599,188.372,456.183,272.465,607.628,427.718 C759.073,582.97,839.029,750.591,786.215,802.11"/>
      </defs>
      <use xlink:href="#8" style="fill:none;opacity:1;stroke:url(#9);stroke-linecap:butt;stroke-linejoin:miter;stroke-miterlimit:10;stroke-opacity:1;stroke-width:17;"/>
    </g>
  </defs>
  <use xlink:href="#7"/>
  <radialGradient cx="387.588" cy="412.54" r="286.92" fx="503.411" fy="439.66" gradientUnits="userSpaceOnUse" gradientTransform="matrix(-0.853261,-0.521484,0.521484,-0.853261,503.168,966.666)" id="12">
    <stop style="stop-color:#4e00d4;stop-opacity:1;"/>
    <stop offset="1" style="stop-color:#805fff;stop-opacity:1;"/>
  </radialGradient>
  <defs>
    <title>Shape 4 Copy Copy Copy</title>
    <g id="10">
      <defs>
        <path id="11" d="M793.12,237.539 C844.638,290.353,760.545,455.937,605.293,607.382 C450.04,758.827,282.419,838.783,230.901,785.969"/>
      </defs>
      <use xlink:href="#11" style="fill:none;opacity:1;stroke:url(#12);stroke-linecap:butt;stroke-linejoin:miter;stroke-miterlimit:10;stroke-opacity:1;stroke-width:17;"/>
    </g>
  </defs>
  <use xlink:href="#10"/>
  <defs>
    <title>Path</title>
    <g id="13">
      <defs>
        <path id="14" d="M512,319.204 C618.478,319.204,704.796,405.522,704.796,512 C704.796,618.478,618.478,704.796,512,704.796 C405.522,704.796,319.204,618.478,319.204,512 C319.204,405.522,405.522,319.204,512,319.204 z"/>
      </defs>
      <use xlink:href="#14" style="fill:#ffffff;fill-opacity:1;fill-rule:evenodd;opacity:1;stroke:none;"/>
    </g>
  </defs>
  <use xlink:href="#13"/>
  <linearGradient x1="512" y1="406.981" x2="512" y2="617.019" gradientUnits="userSpaceOnUse" id="17">
    <stop style="stop-color:#15eded;stop-opacity:1;"/>
    <stop offset="1" style="stop-color:#029cf5;stop-opacity:1;"/>
  </linearGradient>
  <defs>
    <title>Path</title>
    <g id="15">
      <defs>
        <path id="16" d="M512,406.981 C570.001,406.981,617.019,453.999,617.019,512 C617.019,570.001,570.001,617.019,512,617.019 C453.999,617.019,406.981,570.001,406.981,512 C406.981,453.999,453.999,406.981,512,406.981 z"/>
      </defs>
      <use xlink:href="#16" style="fill:url(#17);fill-opacity:1;fill-rule:evenodd;opacity:1;stroke:none;"/>
    </g>
  </defs>
  <use xlink:href="#15"/>
  <radialGradient cx="512" cy="512" r="39.2682" fx="512" fy="512" gradientUnits="userSpaceOnUse" gradientTransform="matrix(-4.37114e-08,1,-1,-4.37114e-08,1024,8.34154e-05)" id="20">
    <stop style="stop-color:#4a4a4a;stop-opacity:1;"/>
    <stop offset="1" style="stop-color:#000000;stop-opacity:1;"/>
  </radialGradient>
  <defs>
    <title>Path</title>
    <g id="18">
      <defs>
        <path id="19" d="M512,472.732 C533.687,472.732,551.268,490.313,551.268,512 C551.268,533.687,533.687,551.268,512,551.268 C490.313,551.268,472.732,533.687,472.732,512 C472.732,490.313,490.313,472.732,512,472.732 z"/>
      </defs>
      <use xlink:href="#19" style="fill:url(#20);fill-opacity:1;fill-rule:evenodd;opacity:1;stroke:none;"/>
    </g>
  </defs>
  <use xlink:href="#18"/>
  <radialGradient cx="346.722" cy="529.823" r="286.92" fx="462.545" fy="556.943" gradientUnits="userSpaceOnUse" gradientTransform="matrix(-0.972092,0.234602,-0.234602,-0.972092,808.065,963.519)" id="23">
    <stop style="stop-color:#4e00d4;stop-opacity:1;"/>
    <stop offset="1" style="stop-color:#805fff;stop-opacity:1;"/>
  </radialGradient>
  <defs>
    <title>Shape 4 Copy Copy Copy Copy</title>
    <g id="21">
      <defs>
        <path id="22" d="M509.731,119.324 C583.505,120.24,641.128,296.789,638.436,513.657 C635.744,730.524,573.755,905.588,499.981,904.672"/>
      </defs>
      <use xlink:href="#22" style="fill:none;opacity:1;stroke:url(#23);stroke-linecap:butt;stroke-linejoin:miter;stroke-miterlimit:10;stroke-opacity:1;stroke-width:17;"/>
    </g>
  </defs>
  <use xlink:href="#21"/>
  <radialGradient cx="494.177" cy="351.164" r="286.92" fx="609.999" fy="378.284" gradientUnits="userSpaceOnUse" gradientTransform="matrix(-0.234602,-0.972092,0.972092,-0.234602,268.748,913.933)" id="26">
    <stop style="stop-color:#4e00d4;stop-opacity:1;"/>
    <stop offset="1" style="stop-color:#805fff;stop-opacity:1;"/>
  </radialGradient>
  <defs>
    <title>Shape 4 Copy Copy Copy Copy Copy</title>
    <g id="24">
      <defs>
        <path id="25" d="M904.676,514.173 C903.76,587.947,727.211,645.57,510.344,642.878 C293.476,640.186,118.412,578.197,119.328,504.423"/>
      </defs>
      <use xlink:href="#25" style="fill:none;opacity:1;stroke:url(#26);stroke-linecap:butt;stroke-linejoin:miter;stroke-miterlimit:10;stroke-opacity:1;stroke-width:17;"/>
    </g>
  </defs>
  <use xlink:href="#24"/>
  <radialGradient cx="612.498" cy="395.315" r="286.92" fx="728.321" fy="422.435" gradientUnits="userSpaceOnUse" gradientTransform="matrix(0.521484,-0.853261,0.853261,0.521484,-44.2165,711.786)" id="29">
    <stop style="stop-color:#4e00d4;stop-opacity:1;"/>
    <stop offset="1" style="stop-color:#805fff;stop-opacity:1;"/>
  </radialGradient>
  <defs>
    <title>Shape 4 Copy</title>
    <g id="27">
      <defs>
        <path id="28" d="M787.5,800.847 C734.686,852.365,569.102,768.272,417.657,613.02 C266.212,457.767,186.256,290.146,239.07,238.628"/>
      </defs>
      <use xlink:href="#28" style="fill:none;opacity:1;stroke:url(#29);stroke-linecap:butt;stroke-linejoin:miter;stroke-miterlimit:10;stroke-opacity:1;stroke-width:17;"/>
    </g>
  </defs>
  <use xlink:href="#27"/>
  <radialGradient cx="637.146" cy="611.774" r="286.92" fx="752.969" fy="638.894" gradientUnits="userSpaceOnUse" gradientTransform="matrix(0.853261,0.521484,-0.521484,0.853261,412.524,-242.49)" id="32">
    <stop style="stop-color:#4e00d4;stop-opacity:1;"/>
    <stop offset="1" style="stop-color:#805fff;stop-opacity:1;"/>
  </radialGradient>
  <defs>
    <title>Shape 4 Copy Copy</title>
    <g id="30">
      <defs>
        <path id="31" d="M231.615,786.776 C180.096,733.962,264.189,568.378,419.442,416.933 C574.694,265.488,742.315,185.532,793.833,238.346"/>
      </defs>
      <use xlink:href="#31" style="fill:none;opacity:1;stroke:url(#32);stroke-linecap:butt;stroke-linejoin:miter;stroke-miterlimit:10;stroke-opacity:1;stroke-width:17;"/>
    </g>
  </defs>
  <use xlink:href="#30"/>
</svg>
